<svg xmlns="http://www.w3.org/2000/svg" viewBox="0 0 258.56 208.17"><defs><style>.cls-1{fill:#198c96;}.cls-2{fill:#e47304;}.cls-3{fill:#4e632b;}.cls-4{fill:#fefefe;}</style></defs><title>FitaxxMeals-Logo</title><g id="Layer_2" data-name="Layer 2"><g id="Layer_1-2" data-name="Layer 1"><path class="cls-1" d="M110.33,208.16a113.7,113.7,0,0,1-23.89-2.36,88.06,88.06,0,0,1-20.63-6.92c-4.66-2.25-9.07-4.88-13.56-7.42-2.29-1.29-4.49-2.76-6.86-3.91a3,3,0,0,1-1.22-1.13,16,16,0,0,0-1.34-2.13c-2.84-3.16-1.85-6.87-1.57-10.48,0-.36.07-.72.12-1.07.21-1.35.87-1.66,2.1-1.21A5.66,5.66,0,0,1,46,173.47c1.89,2.43,4.55,3.88,7.16,5.34a90,90,0,0,0,20.06,8.13,104.31,104.31,0,0,0,16.08,3,157.23,157.23,0,0,0,26.57.65c6.87-.41,13.68-1.39,20.51-2.18a125,125,0,0,0,16.87-3.57c6.77-1.76,13.65-3.05,20.39-5a183.8,183.8,0,0,0,22.76-8.21c6.17-2.66,12.31-5.38,18.24-8.54A117.89,117.89,0,0,0,226.92,156,59,59,0,0,0,241,142.77a39.08,39.08,0,0,0,6.6-12.94,34.94,34.94,0,0,0,.33-17,38.67,38.67,0,0,0-4.11-11.21,43.88,43.88,0,0,1-3-6.28,18,18,0,0,0-7-9.2,4.89,4.89,0,0,1-2-2.62,5.59,5.59,0,0,0-3.13-3.16c-3.3-1.56-5-4.63-7-7.41-.16-.23-.29-.53,0-.76s.53-.06.77.09a22.52,22.52,0,0,1,2.8,1.84,5.34,5.34,0,0,0,1.36,1c2.87,1.18,5,3.36,7.46,5.16a3,3,0,0,1,1,1.16c.93,2.19,2.7,3.63,4.48,5a10,10,0,0,1,2,2.09,33.54,33.54,0,0,0,4.9,5.55c1.74,1.57,2.65,3.78,3.73,5.83,2.17,4.13,3.45,8.6,4.93,13a63.24,63.24,0,0,1,2.77,9.55,46.62,46.62,0,0,1,.16,13.5,51.68,51.68,0,0,1-1.3,8.4,48.65,48.65,0,0,1-20.37,26c-5.81,3.74-11.64,7.44-17.71,10.76a168.33,168.33,0,0,1-22.71,10.24c-7.95,2.95-16.06,5.41-24.21,7.71A251.31,251.31,0,0,1,140.72,206,199,199,0,0,1,110.33,208.16Z"/><path class="cls-1" d="M196.76,50.35a23.57,23.57,0,0,1-4.6,0c-2.89,0-5,1.54-7,3.29-.53.47-.19.82.14,1.21,2.44,2.86,4.85,5.74,7.29,8.59,3.53,4.13,7,8.28,10.63,12.37,2.95,3.36,6,6.59,9,10C215.8,90,219.69,93.9,222.5,98.7s.27,9.84-5.13,11a6,6,0,0,1-5.9-1.84,206,206,0,0,1-17.19-18.38c-7-8.38-13.61-17-20.36-25.61-.62-.79-1-.84-1.82-.22-6.21,4.83-12.46,9.61-18.69,14.41q-10.16,7.84-20.28,15.7c-2.78,2.15-5.58,4.28-8.37,6.43-3.81,2.93-6.53,1.73-9.17-1.87a8.66,8.66,0,0,1-1.34-5.14c0-1.57,1.21-2.56,2.15-3.62,3.2-3.62,7.16-6.36,11-9.28C134.2,75,141,69.71,147.9,64.49,152.9,60.7,158,57,163,53.25c.33-.25.93-.39.83-.9s-.7-.45-1.09-.61a12.18,12.18,0,0,0-2.05-.64c-3.32-.68-5.55-2.86-7.5-5.41-4.38-5.71-9.22-11-14-16.36-3.52-3.9-6.7-8.06-8.65-13a16.69,16.69,0,0,1-.94-8.6,5.7,5.7,0,0,1,2-3.32A20,20,0,0,1,136.89.23,1.58,1.58,0,0,1,139,.65q3.74,4.38,7.45,8.77c3.57,4.25,7.18,8.47,10.7,12.76s6.85,8.23,10.36,12.28c2.53,2.93,5.11,5.82,7.64,8.75.48.56.85.67,1.49.18,1.39-1.07,2.85-2.06,4.28-3.08a4,4,0,0,0,1.83-3c.41-5.2,3.34-9,6.7-12.66,2.48-2.72,5.67-4.26,8.79-5.92a114.55,114.55,0,0,1,16.37-7.39,6.78,6.78,0,0,1,2.22-.47,1.78,1.78,0,0,1,1.73,1.24c.3.7-.22,1.07-.71,1.47q-9.24,7.46-18.76,14.55c-.6.45-.95.82-.45,1.55s.9.33,1.38,0q9.42-6.39,18.85-12.78c1-.67,1.89-1,2.93-.08,1.25,1.07,1.34,2.13.09,3.19q-6.24,5.31-12.54,10.59c-1.64,1.39-3.29,2.79-4.94,4.17-.38.32-.63.66-.25,1.11s.76.22,1.13-.08c3-2.4,6.1-4.79,9.13-7.2,2.85-2.26,5.67-4.56,8.52-6.81,1.43-1.14,2.16-1.24,3-.54a3.28,3.28,0,0,1,.57,3.67,13.71,13.71,0,0,1-1.66,2.19c-2.87,3.64-5.67,7.33-8.61,10.92-3.48,4.26-7.33,8.13-12.34,10.63A17.39,17.39,0,0,1,200.39,50,15.37,15.37,0,0,1,196.76,50.35Zm-60-47.63a7.15,7.15,0,0,0-.75.4,22.29,22.29,0,0,0-3.18,2.72,3.65,3.65,0,0,0-1.07,2.45A16.31,16.31,0,0,0,134.23,18c2.51,4.51,6,8.26,9.43,12,3.82,4.25,7.63,8.49,11.14,13,1.88,2.42,4,4.34,7.23,4.93a21,21,0,0,1,5.13,1.62,1.07,1.07,0,0,0,1.2-.2c1.16-.84,2.33-1.69,3.52-2.48.65-.43.58-.78.14-1.35-5.81-7.52-11.6-15.06-17.7-22.35Q146,13.33,137.73,3.38C137.5,3.11,137.32,2.77,136.8,2.72Zm77.41,30.49a2.41,2.41,0,0,0-.53.2c-1.38,1-2.74,2.06-4.13,3.06-1.56,1.12-3,2.42-4.64,3.41a1.73,1.73,0,0,1-2.53-.42c-.66-.84-1.36-1.67-2-2.55a1.89,1.89,0,0,1,.31-2.69c.47-.44,1-.84,1.46-1.24,1.29-1.07,2.59-2.13,3.88-3.21.2-.17.49-.39.23-.68s-.45,0-.64.09-.55.34-.81.52c-1.52,1-3,2.1-4.57,3.09-1.15.73-1.61.58-2.32-.6-.56-.92-1.11-1.85-1.65-2.78a1.68,1.68,0,0,1,.49-2.59c3.25-2.6,6.52-5.15,9.74-7.77a9.56,9.56,0,0,0,2.63-2.35,1.86,1.86,0,0,0-1.38.36c-2.07,1-4.13,2.08-6.19,3.15-3.77,2-7.67,3.74-10.55,7.1-2.51,2.92-4.62,5.95-5,10a8.23,8.23,0,0,1-3.31,5.9c-1.23,1-2.44,1.93-3.68,2.87-.58.45-.76.87-.18,1.47a15.6,15.6,0,0,1,1.66,1.89c.56.8,1,.6,1.65.1a18.44,18.44,0,0,1,4.24-2.88,17.75,17.75,0,0,1,7.19-1,16.14,16.14,0,0,0,8.47-1.63,36,36,0,0,0,9.24-7.34C212.33,35.61,213.56,34.7,214.21,33.21Zm3.32,68.53A13.67,13.67,0,0,0,216.2,99a80,80,0,0,0-8.8-11.19c-5.85-6.39-11.65-12.83-17.13-19.54-2.86-3.49-5.86-6.87-8.56-10.48-.54-.72-1-.92-1.74-.23a21,21,0,0,1-2.38,1.81c-.8.54-.92,1-.2,1.76,5.89,6.47,11.19,13.44,16.7,20.22,6.3,7.76,12.65,15.46,20.28,22,.5.43,1,1,1.66.55A3,3,0,0,0,217.53,101.74Zm-97.62-7.88a2.91,2.91,0,0,0,1.35,2.06c.72.42,1.17-.29,1.64-.66q9.36-7.19,18.7-14.41c5.47-4.23,10.92-8.48,16.39-12.7,3.64-2.81,7.28-5.62,10.95-8.38.92-.69,1-1.28.22-2.1a9,9,0,0,1-1.19-1.5c-.4-.62-.76-.68-1.34-.21-1.14.94-2.35,1.79-3.5,2.72-7.84,6.33-15.81,12.47-23.74,18.67-3.94,3.08-7.91,6.11-11.89,9.14a40.42,40.42,0,0,0-7.11,6.22A1.4,1.4,0,0,0,119.91,93.86Zm57.62-41.19-1-1.23c-1.59-2.07-1.59-2.07-3.63-.51-2.85,2.18-2.85,2.18-.26,4.7l.17.17a.71.71,0,0,0,1.13.08c1-.84,2.07-1.63,3.1-2.44A.84.84,0,0,0,177.53,52.67Zm29.39-24-.09-.09a1.22,1.22,0,0,0-.07.17s.05,0,.07.07Z"/><path class="cls-1" d="M58.49,51.09c0-.62,1.22-.39.83-1.05-.28-.48-1,0-1.44.08-3.21.66-6.42,1.35-9.62,2-.26.06-.61,0-.68.37s.23.37.41.51.88.47.67,1-.76.35-1.18.34c-.71,0-1.15.09-.69.93a2,2,0,0,1,.23.91c0,.65.34.76.86.55l2.45-1,.55-.24c1.55-.71,3.49.18,4.75-.6a16.32,16.32,0,0,1,4.2-2.14,14.4,14.4,0,0,1,3.92-.41c.43,0,1.17-.09.49.72-.16.18-.16.38.07.48s.84.17,1-.13c.7-1.43,2-1.09,3.12-1.09a35.05,35.05,0,0,0,6.78-.78A164.65,164.65,0,0,1,93,49.29a240.31,240.31,0,0,1,24.44-1,120.08,120.08,0,0,1,16.52.86,2,2,0,0,1,1.5.68c-1.3.12-2.42.21-3.54.35-3.77.46-7.58.38-11.36.7a7.46,7.46,0,0,0-4.24,1.49,2.83,2.83,0,0,1-2,.56l-.36,0a12.82,12.82,0,0,0-9,1c-2.54,1.31-5.58,1.33-8.43,1.67C86.22,56.77,76,58.27,66,61.26c-1.5.45-2.65.21-3.43-1.07-1.28-2.13-2.78-2.36-5.14-1.54-9.31,3.26-17.77,7.81-24.53,15.15a1.15,1.15,0,0,1-1.25.43,4.76,4.76,0,0,0-4.49,1.38c-3.45,3-5.87,6.82-8.43,10.56A54,54,0,0,0,9.5,110a49.3,49.3,0,0,0,6.82,33,101.66,101.66,0,0,0,10.23,14.33A7.32,7.32,0,0,1,28,164.52c-.41,1.43-.15,2.94-.73,4.36-.34.82-.58,1.14-1.42.6a17.16,17.16,0,0,0-1.82-.91,13,13,0,0,1-6-5.4c-4.46-7.82-7.84-16.1-11.15-24.43-2.5-6.29-4.8-12.63-5.84-19.35a60.91,60.91,0,0,1-1-8.57c0-1.93-.11-4.12,1.47-5.76a2.5,2.5,0,0,0,.39-1.84c.08-4,.15-7.9,1.25-11.76a45.1,45.1,0,0,1,5.5-11.29Q11.86,75,15.33,69.94c1.5-2.18,3.21-4.17,5.9-5a6,6,0,0,0,2.5-2.19,54.13,54.13,0,0,1,10-9.63A13.11,13.11,0,0,1,37,51.18c2.58-.83,4.57-2.68,6.95-3.85a31.41,31.41,0,0,1,8.43-2.22c3.74-.66,7.39-1.77,11.16-2.25,4.65-.6,9.34-.45,14-.78,4.43-.33,8.87-.1,13.31-.19.72,0,1.44-.08,2.15-.16.47,0,1.1-.28,1.16.39a1.18,1.18,0,0,1-1,1.3,3.84,3.84,0,0,1-1.78-.21,14.38,14.38,0,0,0-7.11,0c-.64.13-.89.32-.42.92.67.86.09,1.14-.65,1.23-2.49.33-5,.59-7.49.93a49,49,0,0,0-6.25,1.13,2.92,2.92,0,0,1-2,0,3.65,3.65,0,0,0-3.55.27,7.61,7.61,0,0,1-3.61,1.15c-.2,0-.43,0-.49.25a.47.47,0,0,0,.17.39c.52.32,1.17.62.77,1.36s-1.17.54-1.84.55A.45.45,0,0,1,58.49,51.09Z"/><path class="cls-2" d="M29.4,182c.26-5.7.93-11.74,1.55-17.79.37-3.66.79-7.31,1.21-11,.07-.59-.3-.89-.54-1.33-1.09-2-2.49-.81-3.69-.46a1.62,1.62,0,0,1-2.07-.84,1.68,1.68,0,0,1-.18-1.16c.11-1.43.27-2.87.31-4.31a1.87,1.87,0,0,1,.86-1.59,47.07,47.07,0,0,0,5.53-5.13c.4-.42.65-.83.32-1.37-1.18-1.91-.92-4-.75-6.06a100.68,100.68,0,0,1,1.83-12.82,4.2,4.2,0,0,0,.13-1.66,59.1,59.1,0,0,1-.57-13.87c.07-1.14-.24-1.56-1.36-1.33a1.68,1.68,0,0,1-2.13-1.19,11.3,11.3,0,0,0-1.29-2.3,6.82,6.82,0,0,1-1.13-5.33,1.45,1.45,0,0,1,1.08-1.37c2.43-.86,2.38-.88,2.12-3.51-.19-2-.62-3.87-.62-5.84,0-.72.2-1,1-1.06,1.8,0,3.6-.14,5.39-.27.7,0,.9.19.88.88A16.17,16.17,0,0,0,37.63,86c.54,2.08,1.36,2.51,3.37,1.8A225.17,225.17,0,0,1,80.14,77.45a200.76,200.76,0,0,1,22.44-2.06c2.36-.11,4.71-.22,7.07-.41.8-.06,1.07.14,1,1-.12,1.43-.2,2.87-.2,4.31,0,.86-.34,1.17-1.16,1.31-6.15,1-12.3,2-18.43,3.17-12.7,2.36-25.38,4.79-37.67,8.88a37,37,0,0,0-8.3,3.71,7,7,0,0,0-2.45,2.26,1.74,1.74,0,0,0,.54,2.71c.47.35.24.72.19,1.07-.31,1.9-.58,3.8-1,5.67-1.06,4.76-1,9.62-1.27,14.44-.24,3.87-.36,7.75-.55,11.63a5,5,0,0,0,.33,2.23,1.93,1.93,0,0,0,3.09.91,18.44,18.44,0,0,1,5.4-2.82c1-.28,2.19-.68,2.54,1,.1.44.43.23.69.16.61-.17,1.24-.3,1.84-.52a34.2,34.2,0,0,1,10.86-1.6c.76,0,1.08.12,1,1-.13,1.39-.19,2.79-.19,4.19,0,.93-.39,1.3-1.26,1.54A170.69,170.69,0,0,0,46.87,147a36.12,36.12,0,0,0-5.39,2.6A3.9,3.9,0,0,0,39.4,153c-.55,12.67-1.21,25.33-1.81,38-.17,3.71-2.27,4-5.17,3.73-1.05-.09-1.56-1.05-2-1.95a17.69,17.69,0,0,1-1.06-6.24C29.35,185.17,29.4,183.77,29.4,182Z"/><path class="cls-2" d="M147.3,134.48c-3.28.53-6.58.92-9.66,2.26a3.72,3.72,0,0,0-2.45,2.81,43.21,43.21,0,0,1-2.66,8.69c-.4.88-.69,2.08-2,1.87s-1-1.49-1.1-2.44c-.38-3.16.69-6,1.95-8.76a2.05,2.05,0,0,0,.09-1.94c-.18-.36-.35-.85.15-1.19,1.22-.82,1.57-2.18,2-3.45,1.18-3.45,1.7-7.06,2.55-10.59a136.31,136.31,0,0,1,4.94-16.64c.9-2.38,2.43-4.38,3.65-6.57.71-1.27,2-1.21,2.81,0a3.3,3.3,0,0,1,.77,3.19c-.75,2.2-.21,4.45,0,6.66a132.75,132.75,0,0,0,2.46,17.19c.17.74.41,1.46.62,2.19.47,1.58,1.11,2.89,3.16,2.75a1.59,1.59,0,0,1,1.84,1.36c.19,1.27-.73,2.13-2.42,1.85-1.39-.23-1.13.39-1,1.21a114,114,0,0,1,1.59,14c0,1.21-.54,1.48-1.47,1.74a1.3,1.3,0,0,1-1.85-.88c-.36-.95-.91-1.71-.33-2.89.35-.71,0-1.79-.14-2.7a30.9,30.9,0,0,0-1.67-8.19C148.82,135.19,148.46,134.33,147.3,134.48ZM144,107.9c-.39.08-.36.31-.4.49-.62,2.4-1.24,4.79-1.83,7.19q-1.89,7.73-3.75,15.47c-.14.56-.35,1.15.67,1a57.58,57.58,0,0,0,8.53-1.84c.73-.23.88-.57.69-1.32-1.22-5-2.11-10-2.94-15C144.6,111.87,144.27,109.89,144,107.9Z"/><path class="cls-2" d="M100,108.87c0,2.57,0,4.65,0,6.73a4.69,4.69,0,0,0,.19,1.77,2.64,2.64,0,0,1,0,2.15c-.44,1.23.09,1.76,1.35,1.46a48.94,48.94,0,0,1,8.48-1.51c.45,0,1-.28,1.33.23s-.05,1.08-.41,1.53a7.8,7.8,0,0,1-2.8,2,31.77,31.77,0,0,1-6.91,2.33,1.39,1.39,0,0,0-1.29,1.59c-.11,5.4-.37,10.79-.48,16.19a22.5,22.5,0,0,0,.47,4.39,1.42,1.42,0,0,1-1.17,1.85,8.63,8.63,0,0,1-2.38.08.49.49,0,0,1-.32-.14,5.75,5.75,0,0,1-.4-3.2,1,1,0,0,0,.06-1.13,5.64,5.64,0,0,1-.32-3.17c.39-4.7.49-9.42.51-14.14,0-1.16-.36-1.32-1.37-1.16-1.26.22-2.54.3-3.81.42a2.53,2.53,0,0,1-2.62-1.82c-.16-.73.42-1,.9-1.24a26.77,26.77,0,0,1,5.79-1.92c.81-.22,1.78-.27,1.11-1.54,1.17-5.44-.6-10.89,0-16.31.18-1.55-.21-3-.08-4.54.06-.78.29-1,1.06-1,2.47,0,2.52-.07,2.9,2.35C100.27,103.84,99.9,106.61,100,108.87Z"/><path class="cls-2" d="M201.49,130a1.13,1.13,0,0,0-.4-1.06,41,41,0,0,0-7-5.37c-.7-.38-.4-1-.38-1.46a1.33,1.33,0,0,1,1.13-1.36,2.24,2.24,0,0,1,1.69.4c2.17,1.44,4.39,2.78,6.52,4.26.86.59,1.23.4,1.74-.39a63,63,0,0,1,4.84-6.56c1.1-1.29,2.42-.74,3.66-.48a2.87,2.87,0,0,1,2.42,2.21c.15.64.05,1-.7,1a4.72,4.72,0,0,0-3.34,1.66,23.54,23.54,0,0,0-3.93,5.85c-.27.51-.1.79.29,1.1a18.53,18.53,0,0,1,3.1,3.16,8.42,8.42,0,0,1,1.44,2.75,2.13,2.13,0,0,1-1.61,2.88c-.44.12-.57-.2-.77-.4q-1.94-1.89-3.82-3.81c-1.19-1.2-1-1.36-2.18.11-2.2,2.7-4.33,5.44-6.49,8.17a3.05,3.05,0,0,1-3,.81c-.56-.23-.45-.7-.37-1.12a9.48,9.48,0,0,1,1.13-2.64c1.63-2.89,3.53-5.61,5.43-8.32A2,2,0,0,0,201.49,130Z"/><path class="cls-2" d="M164.43,142.53a8.6,8.6,0,0,1,1.15-2.79,96.54,96.54,0,0,1,5.42-8.33c1-1.45,1-1.9-.35-3a45.39,45.39,0,0,0-6.47-4.89c-.79-.45-.45-1.37-.13-2a1.45,1.45,0,0,1,2.16-.56,27.87,27.87,0,0,1,2.73,1.73c1.48.95,3,1.87,4.42,2.87.65.45,1,.38,1.42-.27a59.56,59.56,0,0,1,4.82-6.57c1.45-1.66,5.25-1,6.1,1,.47,1.11.31,1.39-.88,1.51a4.62,4.62,0,0,0-2.73,1.37,21.82,21.82,0,0,0-4.24,6.2c-.3.57,0,.78.37,1.07a16.85,16.85,0,0,1,3.5,3.75,7.42,7.42,0,0,1,1,2.17,2.08,2.08,0,0,1-1.59,2.78c-.48.15-.65-.19-.88-.43-1.39-1.37-2.81-2.73-4.14-4.17-.58-.62-.91-.51-1.4.06-2.38,2.75-4.57,5.66-6.79,8.54a3,3,0,0,1-3.07,1C164.5,143.35,164.41,143.17,164.43,142.53Z"/><path class="cls-3" d="M74.24,161.91v7.85a23.53,23.53,0,0,0,0,2.52c.15,1.22-.23,1.67-1.52,1.56-1.8-.14-1.56.23-1.56-1.63,0-4.88,0-9.76,0-14.64,0-.85.26-1,1.07-1.08a3.23,3.23,0,0,1,3.54,1.88c1.2,2.14,2.69,4.13,4.14,6.32l4.79-7.19a4.14,4.14,0,0,1,3.72-.94c.33.18.22.48.22.74,0,5.24,0,10.48,0,15.72,0,.63-.18.8-.81.81-2.33.06-2.33.08-2.33-2.28v-9.48c0-.08,0-.16-.06-.53l-5.6,8.09-5.38-7.8Z"/><path class="cls-3" d="M98,165.17c0-2.52,0-5,0-7.56,0-.79.13-1.1,1-1.09,3.72,0,7.44.07,11.16,0,1.13,0,1,.63.94,1.29s.33,1.47-.94,1.43c-2.68-.08-5.36,0-8,0-.75,0-1.09.15-1,1a21.18,21.18,0,0,1,0,2.76c0,.63.18.82.81.81,2.36,0,4.72.05,7.08-.05,1.08,0,1.06.52,1,1.23s.4,1.56-1,1.5c-2.32-.1-4.64,0-7,0-.72,0-1,.16-1,.93a18,18,0,0,1,0,2.75c-.06.83.18,1.1,1.05,1.08,2.67-.05,5.36.06,8-.05,1.32,0,1,.74,1,1.45s.06,1.31-1.07,1.29c-3.68-.09-7.36-.06-11,0-.86,0-1.18-.15-1.15-1.09C98,170.21,98,167.69,98,165.17Z"/><path class="cls-3" d="M136.8,173.76c-3.15.16-3.25.2-4.24-2.51a2.24,2.24,0,0,0-2.68-1.76,53.48,53.48,0,0,1-5.52,0c-.65,0-1,.14-1.24.8a9.13,9.13,0,0,1-.51,1.21c-1.07,2.5-1.07,2.5-3.93,2.22-.16-.4.12-.69.26-1,2.29-5.18,4.61-10.35,6.86-15.54a1.28,1.28,0,0,1,1.55-.9c.78.11,1.64-.35,2.16.86,2.26,5.28,4.63,10.52,7,15.77C136.58,173.17,136.67,173.42,136.8,173.76Zm-9.18-13.83c-1.06,2.43-2,4.62-3,6.88h6C129.65,164.56,128.69,162.38,127.62,159.93Z"/><path class="cls-3" d="M172.13,174.06a11.72,11.72,0,0,1-7-2.22c-.55-.4-.65-.73-.13-1.19l.16-.18c1.07-1.29,1.07-1.28,2.45-.41a7.6,7.6,0,0,0,5.13,1.24c1.56-.2,2.4-.93,2.49-2s-.46-1.69-2.07-2.24c-1.77-.61-3.67-.8-5.38-1.63a4.57,4.57,0,0,1-.81-7.8,6.21,6.21,0,0,1,3.31-1.27,10.48,10.48,0,0,1,6.76,1.55c.59.37.84.7.27,1.28a2.43,2.43,0,0,0-.43.58c-.43.87-.92.9-1.75.38a6.47,6.47,0,0,0-5-1,2,2,0,0,0-1.81,1.8c-.12,1.12.6,1.67,1.5,2,2,.8,4.11,1,6,1.91,3.51,1.65,3,6.26.56,7.93a6.32,6.32,0,0,1-2.17,1A8.1,8.1,0,0,1,172.13,174.06Z"/><path class="cls-2" d="M79.31,132.94a94.05,94.05,0,0,1-2.47,14,5.7,5.7,0,0,1-.3.91c-.27.56-.42,1.3-1.24,1.26a1.78,1.78,0,0,1-1.57-1.3,3.62,3.62,0,0,1-.24-2c1-6.08,1.8-12.18,2.25-18.32,0-.48-.24-1.22.65-1.31a1.66,1.66,0,0,1,2,1A17.57,17.57,0,0,1,79.31,132.94Z"/><path class="cls-3" d="M145,165.16c0-2.52,0-5,0-7.55,0-.79.11-1.12,1-1.1,2.12,0,2.13,0,2.13,2.12,0,3.68.05,7.36,0,11,0,1.21.35,1.45,1.47,1.41,2.27-.09,4.56,0,6.83,0,1.43-.05,1,.91,1,1.6s0,1.25-1,1.22c-3.48-.07-7-.05-10.43,0-.8,0-1-.23-1-1C145.06,170.27,145,167.72,145,165.16Z"/><path class="cls-2" d="M78,118.52a4.05,4.05,0,0,1-4-4.69c.07-.61.45-.66.91-.71,1-.12,2.07-.23,3.1-.38a2.25,2.25,0,0,1,2.43,2.17,6.32,6.32,0,0,1-.87,2.84A1.49,1.49,0,0,1,78,118.52Z"/><path class="cls-4" d="M206.92,28.7l-.09.15s-.08-.06-.07-.07a1.22,1.22,0,0,1,.07-.17Z"/></g></g></svg>